<svg id="SvgjsSvg1020" xmlns="http://www.w3.org/2000/svg" version="1.1" xmlns:xlink="http://www.w3.org/1999/xlink" xmlns:svgjs="http://svgjs.com/svgjs" width="22" height="12" viewBox="0 0 22 12"><title>ARROW / DOWN</title><desc>Created with Avocode.</desc><defs id="SvgjsDefs1021"></defs><path id="SvgjsPath1022" d="M1521.14 3955.47L1529 3947.62L1536.96 3955.58V3955.58C1537.23 3955.84 1537.6000000000001 3956 1538 3956C1538.83 3956 1539.5 3955.33 1539.5 3954.5C1539.5 3954.09 1539.34 3953.73 1539.08 3953.46V3953.46L1530.08 3944.46V3944.46C1529.81 3944.17 1529.4199999999998 3944 1529 3944V3944H1528.99C1528.57 3944 1528.19 3944.17 1527.91 3944.46V3944.46L1518.91 3953.46H1518.92C1518.66 3953.73 1518.5 3954.1 1518.5 3954.5C1518.5 3955.33 1519.17 3956 1520 3956C1520.46 3956 1520.86 3955.79 1521.14 3955.47Z " fill="#cccccc" fill-opacity="1" transform="matrix(1,0,0,1,-1518,-3944)"></path></svg>