<svg id="SvgjsSvg1008" xmlns="http://www.w3.org/2000/svg" version="1.1" xmlns:xlink="http://www.w3.org/1999/xlink" xmlns:svgjs="http://svgjs.com/svgjs" width="18" height="15" viewBox="0 0 18 15"><title>SHOPPING CART</title><desc>Created with Avocode.</desc><defs id="SvgjsDefs1009"></defs><path id="SvgjsPath1010" d="M1501.73 40.6629V40.6635L1499.25 46.163199999999996C1499.13 46.4344 1498.87 46.6275 1498.55 46.6478L1491.43 47.1228L1491.8400000000001 48.2994H1499.6000000000001C1500.5100000000002 48.2994 1501.2500000000002 49.0385 1501.2500000000002 49.9499C1501.2500000000002 50.8612 1500.5100000000002 51.5997 1499.6000000000001 51.5997C1498.69 51.5997 1497.95 50.8612 1497.95 49.9499H1490.25C1490.25 50.8612 1489.51 51.5997 1488.6 51.5997C1487.6899999999998 51.5997 1486.9499999999998 50.8612 1486.9499999999998 49.9499C1486.9499999999998 49.0385 1487.6899999999998 48.2994 1488.6 48.2994H1490.09L1486.9099999999999 39.224599999999995H1485.0199999999998C1484.5699999999997 39.224599999999995 1484.1999999999998 38.85509999999999 1484.1999999999998 38.399699999999996C1484.1999999999998 37.9443 1484.5699999999997 37.574799999999996 1485.0199999999998 37.574799999999996H1487.4999999999998C1487.8599999999997 37.574799999999996 1488.1599999999999 37.806599999999996 1488.2799999999997 38.128499999999995V38.1273L1488.7599999999998 39.5H1500.9699999999998C1501.4299999999998 39.5 1501.7999999999997 39.869 1501.7999999999997 40.3249C1501.7999999999997 40.445299999999996 1501.7699999999998 40.5592 1501.7299999999998 40.6629ZM1489.34 41.1499L1490.86 45.507000000000005L1497.9499999999998 45.0343L1499.6999999999998 41.1499Z " fill="#ffffff" fill-opacity="1" transform="matrix(1,0,0,1,-1484,-37)"></path></svg>