<svg id="SvgjsSvg1011" xmlns="http://www.w3.org/2000/svg" version="1.1" xmlns:xlink="http://www.w3.org/1999/xlink" xmlns:svgjs="http://svgjs.com/svgjs" width="20" height="12" viewBox="0 0 20 12"><title>VIEW</title><desc>Created with Avocode.</desc><defs id="SvgjsDefs1012"></defs><path id="SvgjsPath1013" d="M789.71 9115.78C789.7090000000001 9115.78 789.7090000000001 9115.79 789.7080000000001 9115.800000000001L789.7070000000001 9115.810000000001C789.7070000000001 9115.820000000002 789.7050000000002 9115.820000000002 789.7050000000002 9115.830000000002C789.7040000000002 9115.840000000002 789.7030000000002 9115.840000000002 789.7020000000001 9115.850000000002C789.6780000000001 9116.010000000002 789.6070000000001 9116.150000000001 789.4980000000002 9116.260000000002C789.2950000000002 9116.510000000002 789.0720000000001 9116.740000000002 788.8480000000002 9116.970000000001C787.6370000000002 9118.2 786.2460000000002 9119.300000000001 784.7250000000001 9120.090000000002C783.7520000000002 9120.600000000002 782.7130000000002 9121.010000000002 781.6350000000001 9121.210000000003C780.4500000000002 9121.430000000002 779.2640000000001 9121.410000000003 778.0850000000002 9121.160000000003C776.0450000000002 9120.710000000003 774.1980000000002 9119.610000000004 772.5820000000001 9118.300000000003C771.8320000000001 9117.680000000002 771.094 9117.020000000002 770.4740000000002 9116.260000000002C770.2020000000001 9115.930000000002 770.2020000000001 9115.540000000003 770.4740000000002 9115.210000000003C770.6780000000001 9114.970000000003 770.9000000000002 9114.740000000003 771.1250000000001 9114.510000000002C772.3360000000001 9113.280000000002 773.7260000000001 9112.180000000002 775.2480000000002 9111.390000000001C776.2200000000001 9110.880000000001 777.2590000000001 9110.470000000001 778.3370000000002 9110.27C779.5220000000002 9110.050000000001 780.7080000000002 9110.060000000001 781.8870000000002 9110.32C783.9270000000001 9110.76 785.7740000000001 9111.869999999999 787.3900000000002 9113.18C788.1400000000002 9113.79 788.8780000000003 9114.460000000001 789.4980000000002 9115.210000000001C789.6070000000002 9115.330000000002 789.6770000000001 9115.470000000001 789.7010000000001 9115.62C789.7010000000001 9115.630000000001 789.7010000000001 9115.630000000001 789.7020000000001 9115.630000000001C789.7030000000001 9115.630000000001 789.7040000000001 9115.640000000001 789.7040000000001 9115.650000000001C789.705 9115.650000000001 789.706 9115.660000000002 789.7070000000001 9115.660000000002C789.7070000000001 9115.670000000002 789.7070000000001 9115.670000000002 789.7080000000001 9115.680000000002C789.7080000000001 9115.690000000002 789.7090000000001 9115.690000000002 789.7090000000001 9115.700000000003C789.71 9115.710000000003 789.711 9115.730000000003 789.711 9115.740000000003C789.711 9115.750000000004 789.71 9115.760000000004 789.71 9115.780000000004ZM779.991 9111.94C777.977 9111.94 776.345 9113.57 776.345 9115.59C776.345 9117.6 777.977 9119.23 779.991 9119.23C782.004 9119.23 783.635 9117.6 783.635 9115.59C783.635 9113.57 782.004 9111.94 779.991 9111.94ZM781.813 9115.59C781.813 9114.58 780.997 9113.76 779.991 9113.76C778.984 9113.76 778.168 9114.58 778.168 9115.59C778.168 9116.59 778.984 9117.41 779.991 9117.41C780.997 9117.41 781.813 9116.59 781.813 9115.59Z " fill="#95e1d3" fill-opacity="1" transform="matrix(1,0,0,1,-770,-9110)"></path></svg>