<?xml version="1.0" encoding="utf-8"?><svg xmlns="http://www.w3.org/2000/svg" xmlns:xlink="http://www.w3.org/1999/xlink"><symbol viewBox="0 0 32 31" id="alarm"><title>ALARM</title><path d="M32 5.87C32 2.63 29.37 0 26.126 0c-1.371 0-2.629.47-3.629 1.26A15.727 15.727 0 0 1 30.74 9.5 5.83 5.83 0 0 0 32 5.87zM16 1.5C7.992 1.5 1.5 7.99 1.5 16c0 3.85 1.508 7.33 3.951 9.93l-2.012 2.01a1.5 1.5 0 1 0 2.122 2.12l2.163-2.16a14.467 14.467 0 0 0 16.566-.01l2.178 2.18c.268.26.639.43 1.049.43a1.48 1.48 0 0 0 1.049-2.53l-2.029-2.03c2.451-2.6 3.963-6.09 3.963-9.94 0-8.01-6.492-14.5-14.5-14.5zM27.5 16c0 6.35-5.149 11.5-11.5 11.5S4.5 22.35 4.5 16 9.649 4.5 16 4.5 27.5 9.65 27.5 16zm-4 0a1.5 1.5 0 0 0-1.5-1.5h-4.5V8a1.5 1.5 0 1 0-3 0v8c0 .83.672 1.5 1.5 1.5h6a1.5 1.5 0 0 0 1.5-1.5zM1.287 9.71A5.978 5.978 0 0 1 0 6c0-3.31 2.686-6 6-6 1.4 0 2.685.48 3.706 1.29a16.016 16.016 0 0 0-8.419 8.42z" fill="#95e1d3"/></symbol><symbol viewBox="0 0 22 12" id="arrow"><title>ARROW / DOWN</title><path d="M3.14 11.47L11 3.62l7.96 7.96a1.498 1.498 0 0 0 2.12-2.12l-9-9C11.81.17 11.42 0 11 0h-.01c-.42 0-.8.17-1.08.46l-9 9h.01A1.498 1.498 0 0 0 2 12c.46 0 .86-.21 1.14-.53z" fill="#ccc"/></symbol><symbol viewBox="0 0 32 32" id="book-2"><title>BOOK 2</title><path d="M31.065 25.89l-14.471 5.99A1.47 1.47 0 0 1 16 32a1.47 1.47 0 0 1-.594-.12L.935 25.89A1.496 1.496 0 0 1 0 24.5v-23C0 .67.672 0 1.5 0c.203 0 .397.04.573.11h.001l.002.01h.013L16 5.88 29.911.12h.013l.003-.01c.176-.07.37-.11.573-.11.828 0 1.5.67 1.5 1.5v23c0 .63-.387 1.17-.935 1.39zM14.5 8.5L3 3.74V23.5l11.5 4.76zM29 3.74L17.5 8.5v19.76L29 23.5zm-9.121 6.89l5.5-2.5c.189-.08.399-.13.621-.13.828 0 1.5.67 1.5 1.5 0 .61-.361 1.13-.879 1.37l-5.5 2.5c-.19.08-.4.13-.621.13A1.5 1.5 0 0 1 19 12c0-.61.361-1.13.879-1.37zm0 5.5l5.5-2.5c.189-.08.399-.13.621-.13.828 0 1.5.67 1.5 1.5 0 .61-.361 1.13-.879 1.37l-5.5 2.5v-.01c-.19.09-.4.14-.621.14a1.5 1.5 0 0 1-1.5-1.5c0-.61.361-1.13.879-1.37zm0 5.5l5.5-2.5c.189-.08.399-.13.621-.13.828 0 1.5.67 1.5 1.5 0 .61-.361 1.13-.879 1.37l-5.5 2.5c-.19.08-.4.13-.621.13A1.5 1.5 0 0 1 19 23c0-.61.361-1.13.879-1.37zM6 8c.221 0 .431.05.621.13l5.5 2.5c.518.24.879.76.879 1.37a1.5 1.5 0 0 1-1.5 1.5c-.222 0-.432-.05-.621-.13l-5.5-2.5A1.508 1.508 0 0 1 4.5 9.5C4.5 8.67 5.172 8 6 8zm0 5.5c.221 0 .431.05.621.13l5.5 2.5c.518.24.879.76.879 1.37a1.5 1.5 0 0 1-1.5 1.5c-.222 0-.432-.05-.621-.14v.01l-5.5-2.5A1.508 1.508 0 0 1 4.5 15c0-.83.672-1.5 1.5-1.5zm-1.5 7c0 .61.361 1.13.879 1.37l5.5 2.5c.189.08.399.13.621.13A1.5 1.5 0 0 0 13 23c0-.61-.361-1.13-.879-1.37l-5.5-2.5A1.6 1.6 0 0 0 6 19a1.5 1.5 0 0 0-1.5 1.5z" fill="#95e1d3"/></symbol><symbol viewBox="0 0 32 32" id="bullseye"><title>BULLSEYE</title><path d="M16 32C7.164 32 0 24.84 0 16S7.164 0 16 0c8.837 0 16 7.16 16 16s-7.163 16-16 16zm0-29C8.82 3 3 8.82 3 16s5.82 13 13 13 13-5.82 13-13S23.18 3 16 3zm0 22.5c-5.247 0-9.5-4.26-9.5-9.5 0-5.25 4.253-9.5 9.5-9.5s9.5 4.25 9.5 9.5c0 5.24-4.253 9.5-9.5 9.5zm0-16a6.5 6.5 0 1 0 0 13 6.5 6.5 0 0 0 0-13zm3 6.5c0-1.66-1.343-3-3-3s-3 1.34-3 3 1.343 3 3 3 3-1.34 3-3z" fill="#95e1d3"/></symbol><symbol viewBox="0 0 18 15" id="cart"><title>SHOPPING CART</title><path d="M17.73 3.663l-2.48 5.5a.815.815 0 0 1-.7.485l-7.12.475.41 1.176h7.76a1.651 1.651 0 0 1 0 3.3 1.65 1.65 0 0 1-1.65-1.65h-7.7A1.65 1.65 0 1 1 4.6 11.3h1.49L2.91 2.225H1.02a.824.824 0 0 1 0-1.65H3.5c.36 0 .66.232.78.553L4.76 2.5h12.21a.826.826 0 0 1 .76 1.163zM5.34 4.15l1.52 4.357 7.09-.473L15.7 4.15z" fill="#fff"/></symbol><symbol viewBox="0 0 32 28" id="computer---ok"><title>COMPUTER / OK</title><path d="M30 23h-9.5v2.5l2 2v.5h-13v-.5l2-2V23H2c-.83 0-1.5-.67-1.5-1.5v-20C.5.67 1.17 0 2 0h28c.83 0 1.5.67 1.5 1.5v20c0 .83-.67 1.5-1.5 1.5zm-.5-21h-27v17h27zm-18 8.5c0 .41.17.79.44 1.06l2 2c.27.27.65.44 1.06.44.41 0 .79-.17 1.06-.44l4-4a1.498 1.498 0 1 0-2.12-2.12L15 10.38l-.94-.94a1.498 1.498 0 0 0-2.56 1.06z" fill="#95e1d3"/></symbol><symbol viewBox="0 0 28 32" id="equalizer"><title>EQUALIZER</title><path d="M26.5 16.5h-3A1.5 1.5 0 0 1 22 15V9c0-.83.672-1.5 1.5-1.5h3c.83 0 1.5.67 1.5 1.5v6c0 .83-.67 1.5-1.5 1.5zm-3-15c0-.83.67-1.5 1.5-1.5s1.5.67 1.5 1.5V6h-3zm-8 23h-3A1.5 1.5 0 0 1 11 23v-6c0-.83.672-1.5 1.5-1.5h3c.828 0 1.5.67 1.5 1.5v6a1.5 1.5 0 0 1-1.5 1.5zm-3-23a1.5 1.5 0 1 1 3 0V14h-3zm-8 19h-3A1.5 1.5 0 0 1 0 19v-6c0-.83.672-1.5 1.5-1.5h3c.828 0 1.5.67 1.5 1.5v6a1.5 1.5 0 0 1-1.5 1.5zm-3-19a1.5 1.5 0 1 1 3 0V10h-3zm3 29a1.5 1.5 0 1 1-3 0V22h3zm11 0a1.5 1.5 0 1 1-3 0V26h3zm11-12.5h-3v12.5c0 .83.67 1.5 1.5 1.5s1.5-.67 1.5-1.5z" fill="#95e1d3"/></symbol><symbol viewBox="0 0 32 31" id="home"><title>HOME</title><path d="M31.594 15.48h.004L26 9.88V5.5a1.5 1.5 0 1 0-3 0v1.38L17.098.98h-.001a1.48 1.48 0 0 0-.933-.47h-.004c-.023 0-.045-.01-.068-.01H16c-.425 0-.808.18-1.081.46L.461 15.42a1.5 1.5 0 1 0 2.092 2.15h.001L16 4.12l.038.04L29.477 17.6l.003-.01c.268.25.625.41 1.02.41a1.5 1.5 0 0 0 1.5-1.5c0-.4-.156-.75-.406-1.02zM16 6L3 19v10.5c0 .83.672 1.5 1.5 1.5h14V19h6v12h3a1.5 1.5 0 0 0 1.5-1.5V19zm-2.5 19h-6v-6h6z" fill="#95e1d3"/></symbol><symbol viewBox="0 0 32 32" id="image"><title>IMAGE</title><path d="M30.5 32h-29C.67 32 0 31.33 0 30.5v-29C0 .67.67 0 1.5 0h29c.83 0 1.5.67 1.5 1.5v29c0 .83-.67 1.5-1.5 1.5zM29 3H3v26h26zM12 4.5c.83 0 1.5.67 1.5 1.5s-.67 1.5-1.5 1.5H7.5V12c0 .83-.67 1.5-1.5 1.5s-1.5-.67-1.5-1.5V4.5zM4.5 20c0-.83.67-1.5 1.5-1.5s1.5.67 1.5 1.5v4.5H12c.83 0 1.5.67 1.5 1.5s-.67 1.5-1.5 1.5H4.5zM20 4.5h7.5V12c0 .83-.67 1.5-1.5 1.5s-1.5-.67-1.5-1.5V7.5H20c-.83 0-1.5-.67-1.5-1.5s.67-1.5 1.5-1.5zM18.5 26c0 .83.67 1.5 1.5 1.5h7.5V20c0-.83-.67-1.5-1.5-1.5s-1.5.67-1.5 1.5v4.5H20c-.83 0-1.5.67-1.5 1.5z" fill="#95e1d3"/></symbol><symbol viewBox="0 0 32 32" id="line-graph"><title>LINE GRAPH</title><path d="M30.5 32h-29A1.5 1.5 0 0 1 0 30.5v-29C0 .67.672 0 1.5 0h29c.828 0 1.5.67 1.5 1.5v29a1.5 1.5 0 0 1-1.5 1.5zM29 3H3v26h26zM4.5 17.52a1.5 1.5 0 0 0 2.347 1.24l3.135-1.96 6.657 4.43c.243.17.54.28.861.28.328 0 .632-.11.878-.29h.001l8.5-6h-.001c.377-.27.622-.71.622-1.21a1.5 1.5 0 0 0-1.5-1.5c-.331 0-.637.1-.885.28l-7.638 5.4-6.631-4.42h-.006c-.24-.16-.529-.25-.84-.25-.288 0-.556.08-.785.22l-4 2.5c-.429.26-.715.74-.715 1.28z" fill="#95e1d3"/></symbol><symbol viewBox="0 0 30 30" id="picture"><title>PICTURE</title><path d="M30 24c0 .65-.42 1.2-1 1.41v1.68c.58.21 1 .76 1 1.41 0 .83-.67 1.5-1.5 1.5-.65 0-1.2-.42-1.41-1h-1.68c-.21.58-.76 1-1.41 1-.652 0-1.202-.42-1.408-1h-1.684c-.207.58-.756 1-1.408 1-.652 0-1.201-.42-1.408-1h-1.684c-.207.58-.756 1-1.408 1-.652 0-1.202-.42-1.408-1h-1.684c-.206.58-.756 1-1.408 1-.652 0-1.202-.42-1.408-1H7.408c-.206.58-.756 1-1.408 1-.652 0-1.202-.42-1.408-1H2.908A1.498 1.498 0 0 1 0 28.5c0-.65.419-1.2 1-1.41v-1.68c-.581-.21-1-.76-1-1.41 0-.65.419-1.2 1-1.41v-1.68c-.581-.21-1-.76-1-1.41 0-.65.419-1.2 1-1.41v-1.68c-.581-.21-1-.76-1-1.41 0-.65.419-1.2 1-1.41v-1.68c-.581-.21-1-.76-1-1.41 0-.65.419-1.2 1-1.41V7.41C.419 7.2 0 6.65 0 6c0-.65.419-1.2 1-1.41V2.91C.419 2.7 0 2.15 0 1.5A1.498 1.498 0 1 1 2.908 1h1.684C4.798.42 5.348 0 6 0c.652 0 1.202.42 1.408 1h1.684c.206-.58.756-1 1.408-1 .652 0 1.202.42 1.408 1h1.684c.206-.58.756-1 1.408-1 .652 0 1.201.42 1.408 1h1.684c.207-.58.756-1 1.408-1 .652 0 1.201.42 1.408 1h1.684c.206-.58.756-1 1.408-1 .65 0 1.2.42 1.41 1h1.68c.21-.58.76-1 1.41-1 .83 0 1.5.67 1.5 1.5 0 .65-.42 1.2-1 1.41v1.68c.58.21 1 .76 1 1.41 0 .65-.42 1.2-1 1.41v1.68c.58.21 1 .76 1 1.41 0 .65-.42 1.2-1 1.41v1.68c.58.21 1 .76 1 1.41 0 .65-.42 1.2-1 1.41v1.68c.58.21 1 .76 1 1.41 0 .65-.42 1.2-1 1.41v1.68c.58.21 1 .76 1 1.41zM26 4H4v22h22zM13 20l7-8.5 4.5 7v6h-19l6-6zm0-10c0-1.66-1.343-3-3-3s-3 1.34-3 3c0 1.65 1.343 3 3 3s3-1.35 3-3z" fill="#95e1d3"/></symbol><symbol viewBox="0 0 18 18" id="search"><title>MAGNIFYING GLASS</title><path d="M17.8 16.15a1.65 1.65 0 0 1-2.82 1.166l-4.83-4.835c-.98.58-2.13.919-3.35.919-3.65 0-6.6-2.955-6.6-6.6C.2 3.155 3.15.2 6.8.2c3.65 0 6.6 2.955 6.6 6.6a6.56 6.56 0 0 1-.92 3.347l4.84 4.836c.3.299.48.71.48 1.167zm-11-14.3A4.952 4.952 0 0 0 1.85 6.8c0 2.734 2.22 4.95 4.95 4.95s4.95-2.216 4.95-4.95S9.53 1.85 6.8 1.85z" fill="#fff"/></symbol><symbol viewBox="0 0 63 61" id="speech"><title>SPEECH 4</title><path d="M60 36h-2v5c0 .2-.021.41-.061.6-.028.14-.076.27-.122.4-.02.05-.03.11-.053.17-.048.11-.115.22-.176.32-.035.06-.061.13-.1.19a3.65 3.65 0 0 1-.334.4c-.012.01-.02.03-.033.04-.534.53-1.271.86-2.084.87-.012 0-.024.01-.037.01-.828 0-1.578-.34-2.121-.88L45.757 36H18c-1.657 0-3-1.34-3-3V3c0-1.66 1.343-3 3-3h42c1.657 0 3 1.34 3 3v30c0 1.66-1.343 3-3 3zm-42 3c-3.314 0-6-2.69-6-6V12H3c-1.657 0-3 1.34-3 3v34c0 1.65 1.341 3 2.996 3H7v6c0 .21.021.41.061.6.028.14.076.27.122.4.02.05.03.11.053.17.048.11.115.21.177.32.035.06.06.13.099.18.098.15.212.28.334.41.012.01.02.03.033.04.534.53 1.27.86 2.084.87.013 0 .024.01.037.01.828 0 1.578-.34 2.121-.88L20.243 52H52c1.657 0 3-1.34 3-3v-2a6 6 0 0 1-4.151-1.68h-.008L44.515 39z" fill="#95e1d3"/></symbol><symbol viewBox="0 0 33 24" id="users"><title>USERS</title><path d="M32.95 22.51c0 .54-.446.99-.995.99h-7.412c.556-.13.972-.62.972-1.21 0 0 0-4.5-3.301-6.14-1.412-.7-1.505-.57-2.206-.73l.02-1.95s-.771-.59-1.011-2.43c-.482.13-.641-.57-.67-1.02-.026-.43-.279-1.78.31-1.66-.121-.9-.207-1.71-.165-2.14.148-1.52 1.61-3.1 3.861-3.21 2.649.11 3.698 1.69 3.845 3.2.043.44-.051 1.25-.172 2.15.589-.12.333 1.23.304 1.66-.025.45-.188 1.15-.669 1.01-.241 1.84-1.012 2.43-1.012 2.43l.018 1.94s.488.28 2.546 1.13c2.058.85 1.412.22 3.088 1.05 2.649 1.31 2.649 4.92 2.649 4.92zM15.225 14.6l-.019-2.14s.847-.64 1.111-2.67c.529.16.708-.61.736-1.11.032-.47.313-1.95-.334-1.82.133-.99.236-1.89.189-2.36-.161-1.66-1.315-3.4-4.226-3.52C10.207 1.1 8.6 2.84 8.438 4.5c-.047.48.048 1.37.18 2.36-.646-.13-.368 1.35-.339 1.83.031.49.206 1.26.736 1.11.263 2.02 1.11 2.67 1.11 2.67l-.021 2.15s-.536.33-2.798 1.26c-2.262.94-1.552.2-3.395 1.11C.999 18.43.999 22.41.999 22.41H1c0 .6.489 1.09 1.093 1.09h21.143c.604 0 1.093-.49 1.093-1.09h.001s0-3.98-2.912-5.42c-1.843-.91-1.133-.21-3.395-1.15-2.262-.93-2.798-1.24-2.798-1.24z" fill="#fff"/></symbol></svg>