<?xml version="1.0" encoding="utf-8"?><svg xmlns="http://www.w3.org/2000/svg" xmlns:xlink="http://www.w3.org/1999/xlink"><symbol viewBox="0 0 32 31" id="alarm" xmlns="http://www.w3.org/2000/svg"><title>ALARM</title><path d="M32 5.87C32 2.63 29.37 0 26.126 0c-1.371 0-2.629.47-3.629 1.26A15.727 15.727 0 0 1 30.74 9.5 5.83 5.83 0 0 0 32 5.87zM16 1.5C7.992 1.5 1.5 7.99 1.5 16c0 3.85 1.508 7.33 3.951 9.93l-2.012 2.01a1.5 1.5 0 1 0 2.122 2.12l2.163-2.16a14.467 14.467 0 0 0 16.566-.01l2.178 2.18c.268.26.639.43 1.049.43a1.48 1.48 0 0 0 1.049-2.53l-2.029-2.03c2.451-2.6 3.963-6.09 3.963-9.94 0-8.01-6.492-14.5-14.5-14.5zM27.5 16c0 6.35-5.149 11.5-11.5 11.5S4.5 22.35 4.5 16 9.649 4.5 16 4.5 27.5 9.65 27.5 16zm-4 0a1.5 1.5 0 0 0-1.5-1.5h-4.5V8a1.5 1.5 0 1 0-3 0v8c0 .83.672 1.5 1.5 1.5h6a1.5 1.5 0 0 0 1.5-1.5zM1.287 9.71A5.978 5.978 0 0 1 0 6c0-3.31 2.686-6 6-6 1.4 0 2.685.48 3.706 1.29a16.016 16.016 0 0 0-8.419 8.42z" fill="#95e1d3"/></symbol><symbol viewBox="0 0 22 12" id="arrow" xmlns="http://www.w3.org/2000/svg"><title>ARROW / DOWN</title><path d="M3.14 11.47L11 3.62l7.96 7.96a1.498 1.498 0 0 0 2.12-2.12l-9-9C11.81.17 11.42 0 11 0h-.01c-.42 0-.8.17-1.08.46l-9 9h.01A1.498 1.498 0 0 0 2 12c.46 0 .86-.21 1.14-.53z" fill="#ccc"/></symbol><symbol viewBox="0 0 32 32" id="book-2" xmlns="http://www.w3.org/2000/svg"><title>BOOK 2</title><path d="M31.065 25.89l-14.471 5.99A1.47 1.47 0 0 1 16 32a1.47 1.47 0 0 1-.594-.12L.935 25.89A1.496 1.496 0 0 1 0 24.5v-23C0 .67.672 0 1.5 0c.203 0 .397.04.573.11h.001l.002.01h.013L16 5.88 29.911.12h.013l.003-.01c.176-.07.37-.11.573-.11.828 0 1.5.67 1.5 1.5v23c0 .63-.387 1.17-.935 1.39zM14.5 8.5L3 3.74V23.5l11.5 4.76zM29 3.74L17.5 8.5v19.76L29 23.5zm-9.121 6.89l5.5-2.5c.189-.08.399-.13.621-.13.828 0 1.5.67 1.5 1.5 0 .61-.361 1.13-.879 1.37l-5.5 2.5c-.19.08-.4.13-.621.13A1.5 1.5 0 0 1 19 12c0-.61.361-1.13.879-1.37zm0 5.5l5.5-2.5c.189-.08.399-.13.621-.13.828 0 1.5.67 1.5 1.5 0 .61-.361 1.13-.879 1.37l-5.5 2.5v-.01c-.19.09-.4.14-.621.14a1.5 1.5 0 0 1-1.5-1.5c0-.61.361-1.13.879-1.37zm0 5.5l5.5-2.5c.189-.08.399-.13.621-.13.828 0 1.5.67 1.5 1.5 0 .61-.361 1.13-.879 1.37l-5.5 2.5c-.19.08-.4.13-.621.13A1.5 1.5 0 0 1 19 23c0-.61.361-1.13.879-1.37zM6 8c.221 0 .431.05.621.13l5.5 2.5c.518.24.879.76.879 1.37a1.5 1.5 0 0 1-1.5 1.5c-.222 0-.432-.05-.621-.13l-5.5-2.5A1.508 1.508 0 0 1 4.5 9.5C4.5 8.67 5.172 8 6 8zm0 5.5c.221 0 .431.05.621.13l5.5 2.5c.518.24.879.76.879 1.37a1.5 1.5 0 0 1-1.5 1.5c-.222 0-.432-.05-.621-.14v.01l-5.5-2.5A1.508 1.508 0 0 1 4.5 15c0-.83.672-1.5 1.5-1.5zm-1.5 7c0 .61.361 1.13.879 1.37l5.5 2.5c.189.08.399.13.621.13A1.5 1.5 0 0 0 13 23c0-.61-.361-1.13-.879-1.37l-5.5-2.5A1.6 1.6 0 0 0 6 19a1.5 1.5 0 0 0-1.5 1.5z" fill="#95e1d3"/></symbol><symbol viewBox="0 0 32 32" id="bullseye" xmlns="http://www.w3.org/2000/svg"><title>BULLSEYE</title><path d="M16 32C7.164 32 0 24.84 0 16S7.164 0 16 0c8.837 0 16 7.16 16 16s-7.163 16-16 16zm0-29C8.82 3 3 8.82 3 16s5.82 13 13 13 13-5.82 13-13S23.18 3 16 3zm0 22.5c-5.247 0-9.5-4.26-9.5-9.5 0-5.25 4.253-9.5 9.5-9.5s9.5 4.25 9.5 9.5c0 5.24-4.253 9.5-9.5 9.5zm0-16a6.5 6.5 0 1 0 0 13 6.5 6.5 0 0 0 0-13zm3 6.5c0-1.66-1.343-3-3-3s-3 1.34-3 3 1.343 3 3 3 3-1.34 3-3z" fill="#95e1d3"/></symbol><symbol viewBox="0 0 18 15" id="cart" xmlns="http://www.w3.org/2000/svg"><title>SHOPPING CART</title><path d="M17.73 3.663l-2.48 5.5a.815.815 0 0 1-.7.485l-7.12.475.41 1.176h7.76a1.651 1.651 0 0 1 0 3.3 1.65 1.65 0 0 1-1.65-1.65h-7.7A1.65 1.65 0 1 1 4.6 11.3h1.49L2.91 2.225H1.02a.824.824 0 0 1 0-1.65H3.5c.36 0 .66.232.78.553L4.76 2.5h12.21a.826.826 0 0 1 .76 1.163zM5.34 4.15l1.52 4.357 7.09-.473L15.7 4.15z" fill="#fff"/></symbol><symbol viewBox="0 0 32 28" id="computer---ok" xmlns="http://www.w3.org/2000/svg"><title>COMPUTER / OK</title><path d="M30 23h-9.5v2.5l2 2v.5h-13v-.5l2-2V23H2c-.83 0-1.5-.67-1.5-1.5v-20C.5.67 1.17 0 2 0h28c.83 0 1.5.67 1.5 1.5v20c0 .83-.67 1.5-1.5 1.5zm-.5-21h-27v17h27zm-18 8.5c0 .41.17.79.44 1.06l2 2c.27.27.65.44 1.06.44.41 0 .79-.17 1.06-.44l4-4a1.498 1.498 0 1 0-2.12-2.12L15 10.38l-.94-.94a1.498 1.498 0 0 0-2.56 1.06z" fill="#95e1d3"/></symbol><symbol viewBox="0 0 16 17" id="dribbble" xmlns="http://www.w3.org/2000/svg"><title>dribbble</title><path d="M15.837 6.4a7.897 7.897 0 0 0-.466-1.5 8.22 8.22 0 0 0-.738-1.36 8.093 8.093 0 0 0-2.16-2.16 7.881 7.881 0 0 0-1.359-.74c-.483-.2-.989-.36-1.503-.46A7.904 7.904 0 0 0 8 .01c-.542 0-1.084.06-1.611.17-.514.1-1.02.26-1.504.46-.474.2-.931.45-1.359.74-.423.29-.822.62-1.183.98-.362.36-.69.76-.976 1.18A8.22 8.22 0 0 0 .629 4.9 7.9 7.9 0 0 0 0 8.01a7.9 7.9 0 0 0 .629 3.12c.2.47.449.93.738 1.36.286.42.614.82.976 1.18.361.36.76.69 1.183.98.428.29.885.54 1.359.74.484.2.99.36 1.504.46.527.11 1.069.17 1.611.17s1.084-.06 1.611-.17c.514-.1 1.02-.26 1.503-.46.474-.2.932-.45 1.359-.74a8.093 8.093 0 0 0 2.16-2.16c.289-.43.538-.89.738-1.36a8.02 8.02 0 0 0 .466-4.73zM14.83 7.95c-.099-.02-2.411-.52-4.759-.23-.048-.11-.096-.23-.147-.35-.142-.33-.295-.67-.454-.99 2.698-1.1 3.794-2.69 3.807-2.7a6.794 6.794 0 0 1 1.553 4.27zm-2.317-5.06c-.017.02-.99 1.51-3.569 2.47A34.349 34.349 0 0 0 6.39 1.38 6.58 6.58 0 0 1 8 1.18c1.73 0 3.309.65 4.513 1.71zM6.362 1.38zm-.02.01c.006-.01.013-.01.02-.01-.001 0-.008 0-.02.01zm-1.257.45c.091.12 1.354 1.83 2.537 3.93-3.281.87-6.128.84-6.308.84a6.831 6.831 0 0 1 3.771-4.77zM1.168 8.01c0-.07.003-.14.005-.21.121 0 3.497.08 7.015-.97.196.38.383.77.554 1.16-.09.02-.18.05-.269.08-3.644 1.176-5.513 4.432-5.556 4.509A6.807 6.807 0 0 1 1.168 8.01zm1.749 4.569l.001.001h-.002v-.001zM8 14.85c-1.654 0-3.17-.59-4.352-1.57l.153.12s1.31-2.86 5.362-4.27c.015 0 .03-.01.045-.01.961 2.5 1.358 4.59 1.459 5.19-.819.34-1.721.54-2.667.54zm3.818-1.17c-.07-.41-.434-2.42-1.33-4.88 2.206-.35 4.117.25 4.258.3a6.827 6.827 0 0 1-2.928 4.58z" fill="#95e1d3"/></symbol><symbol viewBox="0 0 28 32" id="equalizer" xmlns="http://www.w3.org/2000/svg"><title>EQUALIZER</title><path d="M26.5 16.5h-3A1.5 1.5 0 0 1 22 15V9c0-.83.672-1.5 1.5-1.5h3c.83 0 1.5.67 1.5 1.5v6c0 .83-.67 1.5-1.5 1.5zm-3-15c0-.83.67-1.5 1.5-1.5s1.5.67 1.5 1.5V6h-3zm-8 23h-3A1.5 1.5 0 0 1 11 23v-6c0-.83.672-1.5 1.5-1.5h3c.828 0 1.5.67 1.5 1.5v6a1.5 1.5 0 0 1-1.5 1.5zm-3-23a1.5 1.5 0 1 1 3 0V14h-3zm-8 19h-3A1.5 1.5 0 0 1 0 19v-6c0-.83.672-1.5 1.5-1.5h3c.828 0 1.5.67 1.5 1.5v6a1.5 1.5 0 0 1-1.5 1.5zm-3-19a1.5 1.5 0 1 1 3 0V10h-3zm3 29a1.5 1.5 0 1 1-3 0V22h3zm11 0a1.5 1.5 0 1 1-3 0V26h3zm11-12.5h-3v12.5c0 .83.67 1.5 1.5 1.5s1.5-.67 1.5-1.5z" fill="#95e1d3"/></symbol><symbol viewBox="0 0 13 26" id="facebook" xmlns="http://www.w3.org/2000/svg"><title>facebook</title><path d="M12.089.2v4.12s-3.037-.3-3.798.86c-.416.64-.169 2.5-.206 3.84h4.029c-.34 1.56-.584 2.62-.835 3.98H8.063v12.8H2.481V13.05H.106V9.02h2.349c.12-2.95.165-5.87 1.629-7.35C5.728 0 7.297.2 12.089.2z" fill="#fff"/></symbol><symbol viewBox="0 0 16 15" id="google-plus" xmlns="http://www.w3.org/2000/svg"><title>google plus</title><path d="M16 3.72v-1h-2.5V.28h-1v2.44H10v1h2.5v2.44h1V3.72zM7.923 1.25l.945-.99h-4.22C2.756.26.975 1.76.975 3.4c0 1.66 1.29 3.05 3.214 3.05.134 0 .264.02.391.01-.124.24-.213.52-.213.79 0 .46.253.84.574 1.15-.242 0-.476.01-.732.01C1.866 8.41 0 9.88 0 11.4c0 1.5 2.039 2.62 4.383 2.62 2.672 0 4.116-1.68 4.116-3.17 0-1.2-.33-1.92-1.444-2.7-.382-.26-1.111-.91-1.111-1.29 0-.44.129-.66.81-1.18.698-.54 1.239-1.23 1.239-2.1 0-1.05-.52-1.84-1.408-2.33zM5.705 8.97c.88.6 1.51.93 1.688 1.62.034.14.052.28.052.43 0 1.21-.794 2.03-3.071 2.03-1.619 0-2.789-.89-2.789-2.1 0-1.18 1.451-2.17 3.071-2.15.378 0 .73.06 1.049.17zM4.8 6.08c-1.087-.03-2.12-1.2-2.308-2.6-.188-1.4.541-2.47 1.628-2.44 1.087.03 2.167 1.15 2.356 2.56C6.663 5 5.887 6.11 4.8 6.08z" fill="#95e1d3"/></symbol><symbol viewBox="0 0 32 31" id="home" xmlns="http://www.w3.org/2000/svg"><title>HOME</title><path d="M31.594 15.48h.004L26 9.88V5.5a1.5 1.5 0 1 0-3 0v1.38L17.098.98h-.001a1.48 1.48 0 0 0-.933-.47h-.004c-.023 0-.045-.01-.068-.01H16c-.425 0-.808.18-1.081.46L.461 15.42a1.5 1.5 0 1 0 2.092 2.15h.001L16 4.12l.038.04L29.477 17.6l.003-.01c.268.25.625.41 1.02.41a1.5 1.5 0 0 0 1.5-1.5c0-.4-.156-.75-.406-1.02zM16 6L3 19v10.5c0 .83.672 1.5 1.5 1.5h14V19h6v12h3a1.5 1.5 0 0 0 1.5-1.5V19zm-2.5 19h-6v-6h6z" fill="#95e1d3"/></symbol><symbol viewBox="0 0 32 32" id="image" xmlns="http://www.w3.org/2000/svg"><title>IMAGE</title><path d="M30.5 32h-29C.67 32 0 31.33 0 30.5v-29C0 .67.67 0 1.5 0h29c.83 0 1.5.67 1.5 1.5v29c0 .83-.67 1.5-1.5 1.5zM29 3H3v26h26zM12 4.5c.83 0 1.5.67 1.5 1.5s-.67 1.5-1.5 1.5H7.5V12c0 .83-.67 1.5-1.5 1.5s-1.5-.67-1.5-1.5V4.5zM4.5 20c0-.83.67-1.5 1.5-1.5s1.5.67 1.5 1.5v4.5H12c.83 0 1.5.67 1.5 1.5s-.67 1.5-1.5 1.5H4.5zM20 4.5h7.5V12c0 .83-.67 1.5-1.5 1.5s-1.5-.67-1.5-1.5V7.5H20c-.83 0-1.5-.67-1.5-1.5s.67-1.5 1.5-1.5zM18.5 26c0 .83.67 1.5 1.5 1.5h7.5V20c0-.83-.67-1.5-1.5-1.5s-1.5.67-1.5 1.5v4.5H20c-.83 0-1.5.67-1.5 1.5z" fill="#95e1d3"/></symbol><symbol viewBox="0 0 26 26" id="instagram" xmlns="http://www.w3.org/2000/svg"><title>instagram</title><path d="M22.7 25.8H3.5c-1.767 0-3.2-1.43-3.2-3.2V3.4C.3 1.63 1.733.2 3.5.2h19.2c1.767 0 3.2 1.43 3.2 3.2v19.2c0 1.77-1.433 3.2-3.2 3.2zM13.1 8.04a4.954 4.954 0 0 0-4.498 2.88h-.005c-.008.02-.014.04-.022.05a6.4 6.4 0 0 0-.128.33c-.019.05-.04.1-.057.15-.037.11-.067.23-.095.34-.014.05-.03.11-.042.16-.026.12-.044.25-.061.37-.007.05-.017.1-.023.15a4.96 4.96 0 1 0 9.862 0c-.006-.05-.016-.1-.023-.15-.017-.12-.035-.25-.061-.37a4.716 4.716 0 0 0-.042-.16c-.028-.11-.058-.23-.095-.34-.017-.05-.038-.1-.057-.15a6.4 6.4 0 0 0-.128-.33c-.008-.01-.014-.03-.022-.05h-.005A4.954 4.954 0 0 0 13.1 8.04zm9.92-3.68c0-.71-.573-1.28-1.28-1.28h-2.56c-.707 0-1.28.57-1.28 1.28v2.56c0 .71.573 1.28 1.28 1.28h2.56c.707 0 1.28-.57 1.28-1.28zm0 6.56h-2.36a7.84 7.84 0 1 1-15.12 0H3.18v10.72c0 .71.573 1.28 1.28 1.28h17.28c.707 0 1.28-.57 1.28-1.28z" fill="#f38181"/></symbol><symbol viewBox="0 0 32 32" id="line-graph" xmlns="http://www.w3.org/2000/svg"><title>LINE GRAPH</title><path d="M30.5 32h-29A1.5 1.5 0 0 1 0 30.5v-29C0 .67.672 0 1.5 0h29c.828 0 1.5.67 1.5 1.5v29a1.5 1.5 0 0 1-1.5 1.5zM29 3H3v26h26zM4.5 17.52a1.5 1.5 0 0 0 2.347 1.24l3.135-1.96 6.657 4.43c.243.17.54.28.861.28.328 0 .632-.11.878-.29h.001l8.5-6h-.001c.377-.27.622-.71.622-1.21a1.5 1.5 0 0 0-1.5-1.5c-.331 0-.637.1-.885.28l-7.638 5.4-6.631-4.42h-.006c-.24-.16-.529-.25-.84-.25-.288 0-.556.08-.785.22l-4 2.5c-.429.26-.715.74-.715 1.28z" fill="#95e1d3"/></symbol><symbol viewBox="0 0 20 26" id="map" xmlns="http://www.w3.org/2000/svg"><title>PIN 2</title><path d="M10 25.8S.4 15.1.4 9.8C.4 4.5 4.698.2 10 .2s9.6 4.3 9.6 9.6-9.6 16-9.6 16zm0-22.4c-3.534 0-6.4 2.87-6.4 6.4 0 3.53 2.866 6.4 6.4 6.4 3.534 0 6.4-2.87 6.4-6.4 0-3.53-2.866-6.4-6.4-6.4zm3.2 6.4c0-1.77-1.433-3.2-3.2-3.2-1.767 0-3.2 1.43-3.2 3.2 0 1.77 1.433 3.2 3.2 3.2 1.767 0 3.2-1.43 3.2-3.2z" fill="#f38181"/></symbol><symbol viewBox="0 0 30 30" id="picture" xmlns="http://www.w3.org/2000/svg"><title>PICTURE</title><path d="M30 24c0 .65-.42 1.2-1 1.41v1.68c.58.21 1 .76 1 1.41 0 .83-.67 1.5-1.5 1.5-.65 0-1.2-.42-1.41-1h-1.68c-.21.58-.76 1-1.41 1-.652 0-1.202-.42-1.408-1h-1.684c-.207.58-.756 1-1.408 1-.652 0-1.201-.42-1.408-1h-1.684c-.207.58-.756 1-1.408 1-.652 0-1.202-.42-1.408-1h-1.684c-.206.58-.756 1-1.408 1-.652 0-1.202-.42-1.408-1H7.408c-.206.58-.756 1-1.408 1-.652 0-1.202-.42-1.408-1H2.908A1.498 1.498 0 0 1 0 28.5c0-.65.419-1.2 1-1.41v-1.68c-.581-.21-1-.76-1-1.41 0-.65.419-1.2 1-1.41v-1.68c-.581-.21-1-.76-1-1.41 0-.65.419-1.2 1-1.41v-1.68c-.581-.21-1-.76-1-1.41 0-.65.419-1.2 1-1.41v-1.68c-.581-.21-1-.76-1-1.41 0-.65.419-1.2 1-1.41V7.41C.419 7.2 0 6.65 0 6c0-.65.419-1.2 1-1.41V2.91C.419 2.7 0 2.15 0 1.5A1.498 1.498 0 1 1 2.908 1h1.684C4.798.42 5.348 0 6 0c.652 0 1.202.42 1.408 1h1.684c.206-.58.756-1 1.408-1 .652 0 1.202.42 1.408 1h1.684c.206-.58.756-1 1.408-1 .652 0 1.201.42 1.408 1h1.684c.207-.58.756-1 1.408-1 .652 0 1.201.42 1.408 1h1.684c.206-.58.756-1 1.408-1 .65 0 1.2.42 1.41 1h1.68c.21-.58.76-1 1.41-1 .83 0 1.5.67 1.5 1.5 0 .65-.42 1.2-1 1.41v1.68c.58.21 1 .76 1 1.41 0 .65-.42 1.2-1 1.41v1.68c.58.21 1 .76 1 1.41 0 .65-.42 1.2-1 1.41v1.68c.58.21 1 .76 1 1.41 0 .65-.42 1.2-1 1.41v1.68c.58.21 1 .76 1 1.41 0 .65-.42 1.2-1 1.41v1.68c.58.21 1 .76 1 1.41zM26 4H4v22h22zM13 20l7-8.5 4.5 7v6h-19l6-6zm0-10c0-1.66-1.343-3-3-3s-3 1.34-3 3c0 1.65 1.343 3 3 3s3-1.35 3-3z" fill="#95e1d3"/></symbol><symbol viewBox="0 0 21 26" id="pinterest" xmlns="http://www.w3.org/2000/svg"><title>pinterest</title><path d="M9.051 16.85c-.209.84-.42 1.71-.638 2.56-.215.85-.405 1.7-.718 2.47-.519 1.29-1.178 2.52-2.043 3.53-.575.66-.453.4-.626.36-.132-.03-.143-.16-.169-.34-.141-1.02-.045-2.2.007-3.34.06-1.31.334-2.39.589-3.47.484-2.07.946-4.09 1.435-6.17.032-.14.12-.37.09-.44-.222-.58-.366-1.1-.429-1.7-.073-.7-.017-1.35.139-1.95.277-1.06.913-1.99 1.894-2.34.624-.21 1.315-.11 1.735.14.432.25.729.66.867 1.24.148.62.039 1.35-.08 1.89-.267 1.22-.618 2.14-.937 3.31-.158.59-.337 1.19-.189 1.81.136.58.437.98.847 1.28.426.31.93.48 1.625.46 1.228-.05 2.081-.83 2.651-1.57.913-1.19 1.465-2.79 1.675-4.69.067-.61.117-1.32.07-2.01-.088-1.29-.489-2.32-1.127-3.12a5.282 5.282 0 0 0-2.512-1.71c-1.037-.34-2.472-.45-3.747-.23-2.318.39-3.952 1.71-4.915 3.53a7.085 7.085 0 0 0-.837 3.41c0 1.05.259 1.86.678 2.5.133.2.328.37.458.6.185.32-.028.81-.119 1.16-.11.43-.122 1.01-.618 1.02-.206.01-.464-.14-.638-.24-1.305-.72-2.097-2.03-2.422-3.74a8.878 8.878 0 0 1 0-3.23c.19-.97.544-1.86.937-2.58.814-1.51 2.007-2.71 3.459-3.57C6.559 1.02 7.818.56 9.35.34c.508-.08 1.034-.11 1.605-.13a9.627 9.627 0 0 1 4.326.8 8.862 8.862 0 0 1 2.98 2.15c.838.92 1.448 1.98 1.834 3.31.202.69.398 1.43.398 2.29 0 .85-.181 1.61-.308 2.37-.474 2.82-1.819 5.14-3.838 6.45a6.4 6.4 0 0 1-1.754.81c-.667.2-1.428.34-2.243.29-.791-.06-1.439-.27-1.983-.58-.54-.31-.994-.68-1.316-1.25z" fill="#f38181"/></symbol><symbol viewBox="0 0 18 18" id="search" xmlns="http://www.w3.org/2000/svg"><title>MAGNIFYING GLASS</title><path d="M17.8 16.15a1.65 1.65 0 0 1-2.82 1.166l-4.83-4.835c-.98.58-2.13.919-3.35.919-3.65 0-6.6-2.955-6.6-6.6C.2 3.155 3.15.2 6.8.2c3.65 0 6.6 2.955 6.6 6.6a6.56 6.56 0 0 1-.92 3.347l4.84 4.836c.3.299.48.71.48 1.167zm-11-14.3A4.952 4.952 0 0 0 1.85 6.8c0 2.734 2.22 4.95 4.95 4.95s4.95-2.216 4.95-4.95S9.53 1.85 6.8 1.85z" fill="#fff"/></symbol><symbol viewBox="0 0 63 61" id="speech" xmlns="http://www.w3.org/2000/svg"><title>SPEECH 4</title><path d="M60 36h-2v5c0 .2-.021.41-.061.6-.028.14-.076.27-.122.4-.02.05-.03.11-.053.17-.048.11-.115.22-.176.32-.035.06-.061.13-.1.19a3.65 3.65 0 0 1-.334.4c-.012.01-.02.03-.033.04-.534.53-1.271.86-2.084.87-.012 0-.024.01-.037.01-.828 0-1.578-.34-2.121-.88L45.757 36H18c-1.657 0-3-1.34-3-3V3c0-1.66 1.343-3 3-3h42c1.657 0 3 1.34 3 3v30c0 1.66-1.343 3-3 3zm-42 3c-3.314 0-6-2.69-6-6V12H3c-1.657 0-3 1.34-3 3v34c0 1.65 1.341 3 2.996 3H7v6c0 .21.021.41.061.6.028.14.076.27.122.4.02.05.03.11.053.17.048.11.115.21.177.32.035.06.06.13.099.18.098.15.212.28.334.41.012.01.02.03.033.04.534.53 1.27.86 2.084.87.013 0 .024.01.037.01.828 0 1.578-.34 2.121-.88L20.243 52H52c1.657 0 3-1.34 3-3v-2a6 6 0 0 1-4.151-1.68h-.008L44.515 39z" fill="#95e1d3"/></symbol><symbol viewBox="0 0 17 15" id="speech-bubble-2" xmlns="http://www.w3.org/2000/svg"><title>SPEECH BUBBLE 2</title><path d="M9.416 12.36c-.573 0-1.134-.17-1.676-.25-2.191 2.78-5.647 2.23-5.647 2.23 2.441-1.15 2.391-3.07 1.957-3.32C2.134 9.89.982 8.18.982 6.26c0-3.4 3.727-6.14 8.434-6.14 4.708 0 7.577 2.74 7.577 6.14 0 3.39-2.869 6.1-7.577 6.1zM5.242 4.88c-.828 0-1.5.67-1.5 1.49a1.5 1.5 0 1 0 3 0c0-.82-.671-1.49-1.5-1.49zm3.75 0c-.828 0-1.5.67-1.5 1.49a1.5 1.5 0 1 0 3 0c0-.82-.671-1.49-1.5-1.49zm3.75 0c-.828 0-1.5.67-1.5 1.49a1.5 1.5 0 1 0 3 0c0-.82-.671-1.49-1.5-1.49z" fill="#95e1d3"/></symbol><symbol viewBox="0 0 11 17" id="tumblr" xmlns="http://www.w3.org/2000/svg"><title>tumblr</title><path d="M10.009 15.15c-.68.32-1.297.54-1.849.67s-1.148.2-1.789.2c-.729 0-1.158-.09-1.718-.28a4.098 4.098 0 0 1-1.431-.79c-.396-.34-.669-.71-.823-1.09-.152-.39-.228-.94-.228-1.68V6.57H.007V4.3c.626-.2 1.351-.5 1.796-.88.448-.38.805-.84 1.075-1.37.27-.54.457-1.22.558-2.04h2.265v3.7h3.682v2.86H5.701v4.1c0 .93-.012 1.47.086 1.73.097.26.341.53.607.69.353.21.755.32 1.209.32.806 0 1.608-.26 2.406-.79z" fill="#95e1d3"/></symbol><symbol viewBox="0 0 26 22" id="twitter" xmlns="http://www.w3.org/2000/svg"><title>twitter</title><path d="M17.513.6c2.034-.04 3.117.71 4.151 1.65.878-.08 2.019-.57 2.691-.91l.653-.36c-.384 1.04-.904 1.85-1.704 2.47-.178.14-.354.32-.577.41v.01c1.14-.01 2.08-.52 2.973-.8v.01c-.469.74-1.104 1.5-1.781 2.04-.273.22-.547.44-.82.65.015 1.21-.018 2.36-.243 3.38-1.312 5.89-4.788 9.89-10.289 11.61-1.976.61-5.168.87-7.432.31-1.122-.28-2.136-.6-3.087-1.01-.529-.23-1.019-.48-1.487-.77-.154-.09-.307-.19-.461-.28.51.01 1.108.15 1.678.06.517-.08 1.023-.06 1.5-.16 1.188-.26 2.243-.61 3.151-1.14.441-.26 1.11-.56 1.423-.93-.59.01-1.125-.13-1.563-.28-1.699-.6-2.688-1.71-3.332-3.36.515.05 1.998.19 2.345-.11-.648-.03-1.271-.41-1.717-.69-1.367-.85-2.481-2.28-2.473-4.49.18.08.359.17.538.25.344.15.693.23 1.102.31.173.04.519.14.718.06h-.026c-.264-.3-.695-.51-.961-.84C1.606 6.6.785 4.92 1.304 2.93c.132-.51.341-.96.564-1.37.009 0 .017.01.026.01.102.22.33.37.474.55.448.56 1 1.06 1.563 1.5 1.918 1.5 3.645 2.42 6.419 3.1.704.17 1.517.31 2.358.31-.236-.69-.16-1.8.025-2.47.468-1.67 1.483-2.88 2.973-3.52.356-.16.751-.27 1.166-.36.214-.03.427-.05.641-.08z" fill="#f38181"/></symbol><symbol viewBox="0 0 33 24" id="users" xmlns="http://www.w3.org/2000/svg"><title>USERS</title><path d="M32.95 22.51c0 .54-.446.99-.995.99h-7.412c.556-.13.972-.62.972-1.21 0 0 0-4.5-3.301-6.14-1.412-.7-1.505-.57-2.206-.73l.02-1.95s-.771-.59-1.011-2.43c-.482.13-.641-.57-.67-1.02-.026-.43-.279-1.78.31-1.66-.121-.9-.207-1.71-.165-2.14.148-1.52 1.61-3.1 3.861-3.21 2.649.11 3.698 1.69 3.845 3.2.043.44-.051 1.25-.172 2.15.589-.12.333 1.23.304 1.66-.025.45-.188 1.15-.669 1.01-.241 1.84-1.012 2.43-1.012 2.43l.018 1.94s.488.28 2.546 1.13c2.058.85 1.412.22 3.088 1.05 2.649 1.31 2.649 4.92 2.649 4.92zM15.225 14.6l-.019-2.14s.847-.64 1.111-2.67c.529.16.708-.61.736-1.11.032-.47.313-1.95-.334-1.82.133-.99.236-1.89.189-2.36-.161-1.66-1.315-3.4-4.226-3.52C10.207 1.1 8.6 2.84 8.438 4.5c-.047.48.048 1.37.18 2.36-.646-.13-.368 1.35-.339 1.83.031.49.206 1.26.736 1.11.263 2.02 1.11 2.67 1.11 2.67l-.021 2.15s-.536.33-2.798 1.26c-2.262.94-1.552.2-3.395 1.11C.999 18.43.999 22.41.999 22.41H1c0 .6.489 1.09 1.093 1.09h21.143c.604 0 1.093-.49 1.093-1.09h.001s0-3.98-2.912-5.42c-1.843-.91-1.133-.21-3.395-1.15-2.262-.93-2.798-1.24-2.798-1.24z" fill="#fff"/></symbol><symbol viewBox="0 0 20 12" id="view" xmlns="http://www.w3.org/2000/svg"><title>VIEW</title><path d="M19.71 5.78l-.002.02-.001.01-.002.02-.003.02a.729.729 0 0 1-.204.41c-.203.25-.426.48-.65.71-1.211 1.23-2.602 2.33-4.123 3.12-.973.51-2.012.92-3.09 1.12-1.185.22-2.371.2-3.55-.05-2.04-.45-3.887-1.55-5.503-2.86-.75-.62-1.488-1.28-2.108-2.04-.272-.33-.272-.72 0-1.05.204-.24.426-.47.651-.7 1.211-1.23 2.601-2.33 4.123-3.12C6.22.88 7.259.47 8.337.27a8.843 8.843 0 0 1 3.55.05c2.04.44 3.887 1.55 5.503 2.86.75.61 1.488 1.28 2.108 2.03a.796.796 0 0 1 .206.44l.003.01.001.02.001.02.002.04-.001.04zM9.991 1.94a3.645 3.645 0 1 0-.002 7.29 3.645 3.645 0 0 0 .002-7.29zm1.822 3.65c0-1.01-.816-1.83-1.822-1.83a1.825 1.825 0 1 0 0 3.65c1.006 0 1.822-.82 1.822-1.82z" fill="#95e1d3"/></symbol><symbol viewBox="0 0 16 12" id="youtube" xmlns="http://www.w3.org/2000/svg"><title>youtube</title><path d="M13.537.52H2.883C1.525.52 0 1.43 0 2.76v6.62c0 1.33 1.525 2.14 2.883 2.14h10.654c1.359 0 2.459-.81 2.459-2.14V2.76c0-1.33-1.1-2.24-2.459-2.24zM6.964 8.57l-.032-5.04 3.508 2.54z" fill="#95e1d3"/></symbol></svg>